<svg width="190" height="31" viewBox="0 0 190 31" fill="none" xmlns="http://www.w3.org/2000/svg">
<path fill-rule="evenodd" clip-rule="evenodd" d="M30.4583 2.47917C30.4583 1.82183 30.1977 1.19142 29.7316 0.72675C29.2669 0.260667 28.6365 0 27.9792 0C23.1427 0 7.31567 0 2.47917 0C1.82183 0 1.19142 0.260667 0.72675 0.72675C0.260667 1.19142 0 1.82183 0 2.47917V6.72917C0 7.3865 0.260667 8.01692 0.72675 8.48158C1.19142 8.94767 1.82183 9.20833 2.47917 9.20833H27.9792C28.6365 9.20833 29.2669 8.94767 29.7316 8.48158C30.1977 8.01692 30.4583 7.3865 30.4583 6.72917V2.47917ZM6.02083 3.1875C6.80283 3.1875 7.4375 3.82217 7.4375 4.60417C7.4375 5.38617 6.80283 6.02083 6.02083 6.02083C5.23883 6.02083 4.60417 5.38617 4.60417 4.60417C4.60417 3.82217 5.23883 3.1875 6.02083 3.1875ZM10.9792 3.1875C11.7612 3.1875 12.3958 3.82217 12.3958 4.60417C12.3958 5.38617 11.7612 6.02083 10.9792 6.02083C10.1972 6.02083 9.5625 5.38617 9.5625 4.60417C9.5625 3.82217 10.1972 3.1875 10.9792 3.1875ZM25.8542 3.54167H21.6042C21.0177 3.54167 20.5417 4.01767 20.5417 4.60417C20.5417 5.19067 21.0177 5.66667 21.6042 5.66667H25.8542C26.4407 5.66667 26.9167 5.19067 26.9167 4.60417C26.9167 4.01767 26.4407 3.54167 25.8542 3.54167Z" fill="#1741D4"/>
<path fill-rule="evenodd" clip-rule="evenodd" d="M30.4583 13.1042C30.4583 12.4468 30.1977 11.8164 29.7316 11.3518C29.2669 10.8857 28.6365 10.625 27.9792 10.625C23.1427 10.625 7.31567 10.625 2.47917 10.625C1.82183 10.625 1.19142 10.8857 0.72675 11.3518C0.260667 11.8164 1.49012e-08 12.4468 1.49012e-08 13.1042V17.3542C1.49012e-08 18.0115 0.260667 18.6419 0.72675 19.1066C1.19142 19.5727 1.82183 19.8333 2.47917 19.8333H27.9792C28.6365 19.8333 29.2669 19.5727 29.7316 19.1066C30.1977 18.6419 30.4583 18.0115 30.4583 17.3542V13.1042ZM6.02083 13.8125C6.80283 13.8125 7.4375 14.4472 7.4375 15.2292C7.4375 16.0112 6.80283 16.6458 6.02083 16.6458C5.23883 16.6458 4.60417 16.0112 4.60417 15.2292C4.60417 14.4472 5.23883 13.8125 6.02083 13.8125ZM10.9792 13.8125C11.7612 13.8125 12.3958 14.4472 12.3958 15.2292C12.3958 16.0112 11.7612 16.6458 10.9792 16.6458C10.1972 16.6458 9.5625 16.0112 9.5625 15.2292C9.5625 14.4472 10.1972 13.8125 10.9792 13.8125ZM25.8542 14.1667H21.6042C21.0177 14.1667 20.5417 14.6427 20.5417 15.2292C20.5417 15.8157 21.0177 16.2917 21.6042 16.2917H25.8542C26.4407 16.2917 26.9167 15.8157 26.9167 15.2292C26.9167 14.6427 26.4407 14.1667 25.8542 14.1667Z" fill="#1741D4"/>
<path fill-rule="evenodd" clip-rule="evenodd" d="M30.4583 23.7292C30.4583 23.0718 30.1977 22.4414 29.7316 21.9768C29.2669 21.5107 28.6365 21.25 27.9792 21.25C23.1427 21.25 7.31567 21.25 2.47917 21.25C1.82183 21.25 1.19142 21.5107 0.72675 21.9768C0.260667 22.4414 1.49012e-08 23.0718 1.49012e-08 23.7292V27.9792C1.49012e-08 28.6365 0.260667 29.2669 0.72675 29.7316C1.19142 30.1977 1.82183 30.4583 2.47917 30.4583H27.9792C28.6365 30.4583 29.2669 30.1977 29.7316 29.7316C30.1977 29.2669 30.4583 28.6365 30.4583 27.9792V23.7292ZM6.02083 24.4375C6.80283 24.4375 7.4375 25.0722 7.4375 25.8542C7.4375 26.6362 6.80283 27.2708 6.02083 27.2708C5.23883 27.2708 4.60417 26.6362 4.60417 25.8542C4.60417 25.0722 5.23883 24.4375 6.02083 24.4375ZM10.9792 24.4375C11.7612 24.4375 12.3958 25.0722 12.3958 25.8542C12.3958 26.6362 11.7612 27.2708 10.9792 27.2708C10.1972 27.2708 9.5625 26.6362 9.5625 25.8542C9.5625 25.0722 10.1972 24.4375 10.9792 24.4375ZM25.8542 24.7917H21.6042C21.0177 24.7917 20.5417 25.2677 20.5417 25.8542C20.5417 26.4407 21.0177 26.9167 21.6042 26.9167H25.8542C26.4407 26.9167 26.9167 26.4407 26.9167 25.8542C26.9167 25.2677 26.4407 24.7917 25.8542 24.7917Z" fill="#1741D4"/>
<path d="M65.1155 11.3883H59.4337C59.358 10.8049 59.2027 10.2784 58.9678 9.80871C58.733 9.33902 58.4224 8.9375 58.036 8.60417C57.6496 8.27083 57.1913 8.01705 56.661 7.8428C56.1383 7.66098 55.5587 7.57008 54.9223 7.57008C53.7936 7.57008 52.8201 7.84659 52.0019 8.39962C51.1913 8.95265 50.5663 9.75189 50.1269 10.7973C49.6951 11.8428 49.4792 13.108 49.4792 14.5928C49.4792 16.1383 49.6989 17.4337 50.1383 18.4792C50.5852 19.517 51.2102 20.3011 52.0133 20.8314C52.8239 21.3542 53.7822 21.6155 54.8883 21.6155C55.5095 21.6155 56.0739 21.536 56.5814 21.3769C57.0966 21.2178 57.5473 20.9867 57.9337 20.6837C58.3277 20.3731 58.6496 19.9981 58.8996 19.5587C59.1572 19.1117 59.3352 18.608 59.4337 18.0473L65.1155 18.0814C65.017 19.1117 64.7178 20.1269 64.2178 21.1269C63.7254 22.1269 63.0473 23.0398 62.1837 23.8655C61.3201 24.6837 60.267 25.3352 59.0246 25.8201C57.7898 26.3049 56.3731 26.5473 54.7746 26.5473C52.6686 26.5473 50.7822 26.0852 49.1155 25.161C47.4564 24.2292 46.1458 22.8731 45.1837 21.0928C44.2216 19.3125 43.7405 17.1458 43.7405 14.5928C43.7405 12.0322 44.2292 9.86174 45.2064 8.08144C46.1837 6.30114 47.5057 4.94886 49.1723 4.02462C50.839 3.10038 52.7064 2.63826 54.7746 2.63826C56.1837 2.63826 57.4867 2.83523 58.6837 3.22917C59.8807 3.61553 60.9337 4.18371 61.8428 4.93371C62.7519 5.67614 63.4905 6.58902 64.0587 7.67235C64.6269 8.75568 64.9792 9.99432 65.1155 11.3883Z" fill="black"/>
<path d="M73.8911 2.95644V26.2292H68.3343V2.95644H73.8911Z" fill="black"/>
<path d="M88.6894 18.6951V8.77462H94.2348V26.2292H88.9394V22.9792H88.7576C88.3712 24.0473 87.7121 24.8958 86.7803 25.5246C85.8561 26.1458 84.7386 26.4564 83.428 26.4564C82.2386 26.4564 81.1932 26.1837 80.2917 25.6383C79.3901 25.0928 78.6894 24.3314 78.1894 23.3542C77.6894 22.3693 77.4356 21.2178 77.428 19.8996V8.77462H82.9848V18.8087C82.9924 19.7557 83.2424 20.5019 83.7348 21.0473C84.2273 21.5928 84.8977 21.8655 85.7462 21.8655C86.2992 21.8655 86.7955 21.7443 87.2348 21.5019C87.6818 21.2519 88.0341 20.892 88.2917 20.4223C88.5568 19.9451 88.6894 19.3693 88.6894 18.6951Z" fill="black"/>
<path d="M105.931 26.5587C104.105 26.5587 102.529 26.1989 101.204 25.4792C99.8854 24.7519 98.8703 23.7178 98.1581 22.3769C97.4536 21.0284 97.1013 19.4261 97.1013 17.5701C97.1013 15.767 97.4574 14.1913 98.1695 12.8428C98.8816 11.4867 99.8854 10.4337 101.181 9.68371C102.476 8.92614 104.003 8.54735 105.76 8.54735C107.003 8.54735 108.139 8.74053 109.17 9.12689C110.2 9.51326 111.09 10.0852 111.84 10.8428C112.59 11.6004 113.173 12.536 113.59 13.6496C114.007 14.7557 114.215 16.0246 114.215 17.4564V18.8428H99.0445V15.6155H109.045C109.037 15.0246 108.897 14.4981 108.624 14.036C108.351 13.5739 107.976 13.214 107.499 12.9564C107.029 12.6913 106.488 12.5587 105.874 12.5587C105.253 12.5587 104.696 12.6989 104.204 12.9792C103.711 13.2519 103.321 13.6269 103.033 14.1042C102.745 14.5739 102.594 15.108 102.579 15.7064V18.9905C102.579 19.7027 102.719 20.3277 102.999 20.8655C103.279 21.3958 103.677 21.8087 104.192 22.1042C104.707 22.3996 105.321 22.5473 106.033 22.5473C106.526 22.5473 106.973 22.4792 107.374 22.3428C107.776 22.2064 108.12 22.0057 108.408 21.7405C108.696 21.4754 108.912 21.1496 109.056 20.7633L114.158 20.911C113.946 22.0549 113.48 23.0511 112.76 23.8996C112.048 24.7405 111.113 25.3958 109.954 25.8655C108.795 26.3277 107.454 26.5587 105.931 26.5587Z" fill="black"/>
<path d="M117.053 26.2292V2.95644H122.678V12.2973H131.848V2.95644H137.462V26.2292H131.848V16.8769H122.678V26.2292H117.053Z" fill="black"/>
<path d="M149.138 26.5587C147.305 26.5587 145.729 26.1837 144.411 25.4337C143.1 24.6761 142.089 23.6231 141.377 22.2746C140.672 20.9186 140.32 19.3466 140.32 17.5587C140.32 15.7633 140.672 14.1913 141.377 12.8428C142.089 11.4867 143.1 10.4337 144.411 9.68371C145.729 8.92614 147.305 8.54735 149.138 8.54735C150.972 8.54735 152.544 8.92614 153.854 9.68371C155.172 10.4337 156.184 11.4867 156.888 12.8428C157.6 14.1913 157.956 15.7633 157.956 17.5587C157.956 19.3466 157.6 20.9186 156.888 22.2746C156.184 23.6231 155.172 24.6761 153.854 25.4337C152.544 26.1837 150.972 26.5587 149.138 26.5587ZM149.172 22.3655C149.839 22.3655 150.403 22.161 150.866 21.7519C151.328 21.3428 151.68 20.7746 151.922 20.0473C152.172 19.3201 152.297 18.4792 152.297 17.5246C152.297 16.5549 152.172 15.7064 151.922 14.9792C151.68 14.2519 151.328 13.6837 150.866 13.2746C150.403 12.8655 149.839 12.661 149.172 12.661C148.483 12.661 147.9 12.8655 147.422 13.2746C146.953 13.6837 146.593 14.2519 146.343 14.9792C146.1 15.7064 145.979 16.5549 145.979 17.5246C145.979 18.4792 146.1 19.3201 146.343 20.0473C146.593 20.7746 146.953 21.3428 147.422 21.7519C147.9 22.161 148.483 22.3655 149.172 22.3655Z" fill="black"/>
<path d="M176.042 14.1042L170.939 14.2405C170.886 13.8769 170.742 13.5549 170.508 13.2746C170.273 12.9867 169.966 12.7633 169.587 12.6042C169.216 12.4375 168.784 12.3542 168.292 12.3542C167.648 12.3542 167.098 12.483 166.644 12.7405C166.197 12.9981 165.977 13.3466 165.985 13.786C165.977 14.1269 166.114 14.4223 166.394 14.6723C166.682 14.9223 167.193 15.1231 167.928 15.2746L171.292 15.911C173.034 16.2443 174.33 16.7973 175.178 17.5701C176.034 18.3428 176.466 19.3655 176.473 20.6383C176.466 21.8352 176.11 22.8769 175.405 23.7633C174.708 24.6496 173.754 25.339 172.542 25.8314C171.33 26.3163 169.943 26.5587 168.383 26.5587C165.89 26.5587 163.924 26.0473 162.485 25.0246C161.053 23.9943 160.235 22.6155 160.03 20.8883L165.519 20.7519C165.64 21.3883 165.955 21.8731 166.462 22.2064C166.97 22.5398 167.617 22.7064 168.405 22.7064C169.117 22.7064 169.697 22.5739 170.144 22.3087C170.591 22.0436 170.818 21.6913 170.826 21.2519C170.818 20.858 170.644 20.5436 170.303 20.3087C169.962 20.0663 169.428 19.8769 168.701 19.7405L165.655 19.161C163.905 18.8428 162.602 18.2557 161.746 17.3996C160.89 16.536 160.466 15.4375 160.473 14.1042C160.466 12.9375 160.777 11.9413 161.405 11.1155C162.034 10.2822 162.928 9.64583 164.087 9.20644C165.246 8.76705 166.614 8.54735 168.189 8.54735C170.553 8.54735 172.417 9.04356 173.78 10.036C175.144 11.0208 175.898 12.3769 176.042 14.1042Z" fill="black"/>
<path d="M189.062 8.77462V12.8655H178.05V8.77462H189.062ZM180.357 4.5928H185.914V20.7405C185.914 21.0814 185.967 21.358 186.073 21.5701C186.187 21.7746 186.349 21.9223 186.562 22.0133C186.774 22.0966 187.027 22.1383 187.323 22.1383C187.535 22.1383 187.759 22.1193 187.993 22.0814C188.236 22.036 188.418 21.9981 188.539 21.9678L189.38 25.9792C189.115 26.0549 188.74 26.1496 188.255 26.2633C187.777 26.3769 187.206 26.4489 186.539 26.4792C185.236 26.5398 184.118 26.3883 183.187 26.0246C182.262 25.6534 181.554 25.0777 181.062 24.2973C180.577 23.517 180.342 22.536 180.357 21.3542V4.5928Z" fill="black"/>
</svg>
