<svg width="191" height="32" viewBox="0 0 191 32" fill="none" xmlns="http://www.w3.org/2000/svg">
<path fill-rule="evenodd" clip-rule="evenodd" d="M31.2293 3.25C31.2293 2.59267 30.9687 1.96225 30.5026 1.49758C30.0379 1.0315 29.4075 0.770832 28.7502 0.770832C23.9137 0.770832 8.08666 0.770832 3.25016 0.770832C2.59283 0.770832 1.96241 1.0315 1.49775 1.49758C1.03166 1.96225 0.770996 2.59267 0.770996 3.25V7.5C0.770996 8.15733 1.03166 8.78775 1.49775 9.25242C1.96241 9.7185 2.59283 9.97917 3.25016 9.97917H28.7502C29.4075 9.97917 30.0379 9.7185 30.5026 9.25242C30.9687 8.78775 31.2293 8.15733 31.2293 7.5V3.25ZM6.79183 3.95833C7.57383 3.95833 8.2085 4.593 8.2085 5.375C8.2085 6.157 7.57383 6.79167 6.79183 6.79167C6.00983 6.79167 5.37516 6.157 5.37516 5.375C5.37516 4.593 6.00983 3.95833 6.79183 3.95833ZM11.7502 3.95833C12.5322 3.95833 13.1668 4.593 13.1668 5.375C13.1668 6.157 12.5322 6.79167 11.7502 6.79167C10.9682 6.79167 10.3335 6.157 10.3335 5.375C10.3335 4.593 10.9682 3.95833 11.7502 3.95833ZM26.6252 4.3125H22.3752C21.7887 4.3125 21.3127 4.7885 21.3127 5.375C21.3127 5.9615 21.7887 6.4375 22.3752 6.4375H26.6252C27.2117 6.4375 27.6877 5.9615 27.6877 5.375C27.6877 4.7885 27.2117 4.3125 26.6252 4.3125Z" fill="white"/>
<path fill-rule="evenodd" clip-rule="evenodd" d="M31.2293 13.875C31.2293 13.2177 30.9687 12.5872 30.5026 12.1226C30.0379 11.6565 29.4075 11.3958 28.7502 11.3958C23.9137 11.3958 8.08666 11.3958 3.25016 11.3958C2.59283 11.3958 1.96241 11.6565 1.49775 12.1226C1.03166 12.5872 0.770996 13.2177 0.770996 13.875V18.125C0.770996 18.7823 1.03166 19.4127 1.49775 19.8774C1.96241 20.3435 2.59283 20.6042 3.25016 20.6042H28.7502C29.4075 20.6042 30.0379 20.3435 30.5026 19.8774C30.9687 19.4127 31.2293 18.7823 31.2293 18.125V13.875ZM6.79183 14.5833C7.57383 14.5833 8.2085 15.218 8.2085 16C8.2085 16.782 7.57383 17.4167 6.79183 17.4167C6.00983 17.4167 5.37516 16.782 5.37516 16C5.37516 15.218 6.00983 14.5833 6.79183 14.5833ZM11.7502 14.5833C12.5322 14.5833 13.1668 15.218 13.1668 16C13.1668 16.782 12.5322 17.4167 11.7502 17.4167C10.9682 17.4167 10.3335 16.782 10.3335 16C10.3335 15.218 10.9682 14.5833 11.7502 14.5833ZM26.6252 14.9375H22.3752C21.7887 14.9375 21.3127 15.4135 21.3127 16C21.3127 16.5865 21.7887 17.0625 22.3752 17.0625H26.6252C27.2117 17.0625 27.6877 16.5865 27.6877 16C27.6877 15.4135 27.2117 14.9375 26.6252 14.9375Z" fill="white"/>
<path fill-rule="evenodd" clip-rule="evenodd" d="M31.2293 24.5C31.2293 23.8427 30.9687 23.2123 30.5026 22.7476C30.0379 22.2815 29.4075 22.0208 28.7502 22.0208C23.9137 22.0208 8.08666 22.0208 3.25016 22.0208C2.59283 22.0208 1.96241 22.2815 1.49775 22.7476C1.03166 23.2123 0.770996 23.8427 0.770996 24.5V28.75C0.770996 29.4073 1.03166 30.0377 1.49775 30.5024C1.96241 30.9685 2.59283 31.2292 3.25016 31.2292H28.7502C29.4075 31.2292 30.0379 30.9685 30.5026 30.5024C30.9687 30.0377 31.2293 29.4073 31.2293 28.75V24.5ZM6.79183 25.2083C7.57383 25.2083 8.2085 25.843 8.2085 26.625C8.2085 27.407 7.57383 28.0417 6.79183 28.0417C6.00983 28.0417 5.37516 27.407 5.37516 26.625C5.37516 25.843 6.00983 25.2083 6.79183 25.2083ZM11.7502 25.2083C12.5322 25.2083 13.1668 25.843 13.1668 26.625C13.1668 27.407 12.5322 28.0417 11.7502 28.0417C10.9682 28.0417 10.3335 27.407 10.3335 26.625C10.3335 25.843 10.9682 25.2083 11.7502 25.2083ZM26.6252 25.5625H22.3752C21.7887 25.5625 21.3127 26.0385 21.3127 26.625C21.3127 27.2115 21.7887 27.6875 22.3752 27.6875H26.6252C27.2117 27.6875 27.6877 27.2115 27.6877 26.625C27.6877 26.0385 27.2117 25.5625 26.6252 25.5625Z" fill="white"/>
<path d="M65.8865 12.1591H60.2047C60.129 11.5758 59.9736 11.0492 59.7388 10.5795C59.504 10.1098 59.1933 9.70833 58.807 9.375C58.4206 9.04167 57.9623 8.78788 57.432 8.61364C56.9093 8.43182 56.3297 8.34091 55.6933 8.34091C54.5646 8.34091 53.5911 8.61742 52.7729 9.17045C51.9623 9.72348 51.3373 10.5227 50.8979 11.5682C50.4661 12.6136 50.2502 13.8788 50.2502 15.3636C50.2502 16.9091 50.4699 18.2045 50.9093 19.25C51.3562 20.2879 51.9812 21.072 52.7843 21.6023C53.5949 22.125 54.5532 22.3864 55.6593 22.3864C56.2805 22.3864 56.8449 22.3068 57.3524 22.1477C57.8676 21.9886 58.3183 21.7576 58.7047 21.4545C59.0986 21.1439 59.4206 20.7689 59.6706 20.3295C59.9282 19.8826 60.1062 19.3788 60.2047 18.8182L65.8865 18.8523C65.788 19.8826 65.4888 20.8977 64.9888 21.8977C64.4964 22.8977 63.8183 23.8106 62.9547 24.6364C62.0911 25.4545 61.038 26.1061 59.7956 26.5909C58.5608 27.0758 57.1441 27.3182 55.5456 27.3182C53.4396 27.3182 51.5532 26.8561 49.8865 25.9318C48.2274 25 46.9168 23.6439 45.9547 21.8636C44.9926 20.0833 44.5115 17.9167 44.5115 15.3636C44.5115 12.803 45.0002 10.6326 45.9774 8.85227C46.9547 7.07197 48.2767 5.7197 49.9433 4.79545C51.61 3.87121 53.4774 3.40909 55.5456 3.40909C56.9547 3.40909 58.2577 3.60606 59.4547 4C60.6517 4.38636 61.7047 4.95454 62.6138 5.70454C63.5229 6.44697 64.2615 7.35985 64.8297 8.44318C65.3979 9.52651 65.7502 10.7652 65.8865 12.1591Z" fill="white"/>
<path d="M74.6621 3.72727V27H69.1053V3.72727H74.6621Z" fill="white"/>
<path d="M89.4604 19.4659V9.54545H95.0058V27H89.7104V23.75H89.5286C89.1422 24.8182 88.4831 25.6667 87.5513 26.2955C86.6271 26.9167 85.5096 27.2273 84.199 27.2273C83.0096 27.2273 81.9642 26.9545 81.0627 26.4091C80.1611 25.8636 79.4604 25.1023 78.9604 24.125C78.4604 23.1402 78.2066 21.9886 78.199 20.6705V9.54545H83.7558V19.5795C83.7634 20.5265 84.0134 21.2727 84.5058 21.8182C84.9983 22.3636 85.6687 22.6364 86.5172 22.6364C87.0702 22.6364 87.5665 22.5152 88.0058 22.2727C88.4528 22.0227 88.8051 21.6629 89.0627 21.1932C89.3278 20.7159 89.4604 20.1402 89.4604 19.4659Z" fill="white"/>
<path d="M106.702 27.3295C104.876 27.3295 103.3 26.9697 101.975 26.25C100.656 25.5227 99.6413 24.4886 98.9291 23.1477C98.2246 21.7992 97.8723 20.197 97.8723 18.3409C97.8723 16.5379 98.2284 14.9621 98.9405 13.6136C99.6526 12.2576 100.656 11.2045 101.952 10.4545C103.247 9.69697 104.774 9.31818 106.531 9.31818C107.774 9.31818 108.91 9.51136 109.941 9.89773C110.971 10.2841 111.861 10.8561 112.611 11.6136C113.361 12.3712 113.944 13.3068 114.361 14.4205C114.778 15.5265 114.986 16.7955 114.986 18.2273V19.6136H99.8155V16.3864H109.816C109.808 15.7955 109.668 15.2689 109.395 14.8068C109.122 14.3447 108.747 13.9848 108.27 13.7273C107.8 13.4621 107.259 13.3295 106.645 13.3295C106.024 13.3295 105.467 13.4697 104.975 13.75C104.482 14.0227 104.092 14.3977 103.804 14.875C103.516 15.3447 103.365 15.8788 103.35 16.4773V19.7614C103.35 20.4735 103.49 21.0985 103.77 21.6364C104.05 22.1667 104.448 22.5795 104.963 22.875C105.478 23.1705 106.092 23.3182 106.804 23.3182C107.297 23.3182 107.744 23.25 108.145 23.1136C108.547 22.9773 108.891 22.7765 109.179 22.5114C109.467 22.2462 109.683 21.9205 109.827 21.5341L114.929 21.6818C114.717 22.8258 114.251 23.822 113.531 24.6705C112.819 25.5114 111.884 26.1667 110.725 26.6364C109.566 27.0985 108.225 27.3295 106.702 27.3295Z" fill="white"/>
<path d="M117.824 27V3.72727H123.449V13.0682H132.619V3.72727H138.233V27H132.619V17.6477H123.449V27H117.824Z" fill="white"/>
<path d="M149.909 27.3295C148.076 27.3295 146.5 26.9545 145.182 26.2045C143.871 25.447 142.86 24.3939 142.148 23.0455C141.443 21.6894 141.091 20.1174 141.091 18.3295C141.091 16.5341 141.443 14.9621 142.148 13.6136C142.86 12.2576 143.871 11.2045 145.182 10.4545C146.5 9.69697 148.076 9.31818 149.909 9.31818C151.743 9.31818 153.315 9.69697 154.625 10.4545C155.943 11.2045 156.955 12.2576 157.659 13.6136C158.371 14.9621 158.727 16.5341 158.727 18.3295C158.727 20.1174 158.371 21.6894 157.659 23.0455C156.955 24.3939 155.943 25.447 154.625 26.2045C153.315 26.9545 151.743 27.3295 149.909 27.3295ZM149.943 23.1364C150.61 23.1364 151.174 22.9318 151.637 22.5227C152.099 22.1136 152.451 21.5455 152.693 20.8182C152.943 20.0909 153.068 19.25 153.068 18.2955C153.068 17.3258 152.943 16.4773 152.693 15.75C152.451 15.0227 152.099 14.4545 151.637 14.0455C151.174 13.6364 150.61 13.4318 149.943 13.4318C149.254 13.4318 148.671 13.6364 148.193 14.0455C147.724 14.4545 147.364 15.0227 147.114 15.75C146.871 16.4773 146.75 17.3258 146.75 18.2955C146.75 19.25 146.871 20.0909 147.114 20.8182C147.364 21.5455 147.724 22.1136 148.193 22.5227C148.671 22.9318 149.254 23.1364 149.943 23.1364Z" fill="white"/>
<path d="M176.813 14.875L171.71 15.0114C171.657 14.6477 171.513 14.3258 171.279 14.0455C171.044 13.7576 170.737 13.5341 170.358 13.375C169.987 13.2083 169.555 13.125 169.063 13.125C168.419 13.125 167.869 13.2538 167.415 13.5114C166.968 13.7689 166.748 14.1174 166.756 14.5568C166.748 14.8977 166.885 15.1932 167.165 15.4432C167.453 15.6932 167.964 15.8939 168.699 16.0455L172.063 16.6818C173.805 17.0152 175.101 17.5682 175.949 18.3409C176.805 19.1136 177.237 20.1364 177.244 21.4091C177.237 22.6061 176.881 23.6477 176.176 24.5341C175.479 25.4205 174.525 26.1098 173.313 26.6023C172.101 27.0871 170.714 27.3295 169.154 27.3295C166.661 27.3295 164.695 26.8182 163.256 25.7955C161.824 24.7652 161.006 23.3864 160.801 21.6591L166.29 21.5227C166.411 22.1591 166.726 22.6439 167.233 22.9773C167.741 23.3106 168.388 23.4773 169.176 23.4773C169.888 23.4773 170.468 23.3447 170.915 23.0795C171.362 22.8144 171.589 22.4621 171.597 22.0227C171.589 21.6288 171.415 21.3144 171.074 21.0795C170.733 20.8371 170.199 20.6477 169.472 20.5114L166.426 19.9318C164.676 19.6136 163.373 19.0265 162.517 18.1705C161.661 17.3068 161.237 16.2083 161.244 14.875C161.237 13.7083 161.548 12.7121 162.176 11.8864C162.805 11.053 163.699 10.4167 164.858 9.97727C166.017 9.53788 167.385 9.31818 168.96 9.31818C171.324 9.31818 173.188 9.81439 174.551 10.8068C175.915 11.7917 176.669 13.1477 176.813 14.875Z" fill="white"/>
<path d="M189.833 9.54545V13.6364H178.821V9.54545H189.833ZM181.128 5.36364H186.685V21.5114C186.685 21.8523 186.738 22.1288 186.844 22.3409C186.958 22.5455 187.12 22.6932 187.333 22.7841C187.545 22.8674 187.798 22.9091 188.094 22.9091C188.306 22.9091 188.53 22.8902 188.764 22.8523C189.007 22.8068 189.189 22.7689 189.31 22.7386L190.151 26.75C189.886 26.8258 189.511 26.9205 189.026 27.0341C188.548 27.1477 187.976 27.2197 187.31 27.25C186.007 27.3106 184.889 27.1591 183.958 26.7955C183.033 26.4242 182.325 25.8485 181.833 25.0682C181.348 24.2879 181.113 23.3068 181.128 22.125V5.36364Z" fill="white"/>
</svg>
